<?xml version="1.0" encoding="UTF-8"?> <svg xmlns="http://www.w3.org/2000/svg" id="Layer_1" data-name="Layer 1" viewBox="0 0 3548.28 2265.52"><defs><style>.cls-1{fill:none;}.cls-2,.cls-3{fill:#fbba00;}.cls-2{fill-rule:evenodd;}</style></defs><title>Facile logo-01</title><rect class="cls-1" x="-237.48" y="-160.07" width="4000" height="3000"></rect><path class="cls-2" d="M1090.09,1280.7l-83.44,119.59-13.9-52.84,80.65-80.66,22.26-77.88,44.5-27.81,38.93-44.5,11.14-19.47,47.28-52.85,72.31-30.59,30.6-80.66-36.16,11.12,69.53-102.9L1460,819l158.53,5.57,61.2-33.38,125.15,5.57,178-105.69,69.53-119.61,8.35-64-52.85-86.22,80.67,19.47-69.54-64L1971.78,335,1905,254.38l-5.57-133.51,30.6,119.61L1988.47,310l16.69,13.91,33.37,2.77-13.9-36.15-19.47-61.19,50.06-139.07-19.47,150.2,36.16,44.5,150.2-111.26L2099.73,312.78l25,105.69,50.06-11.12,75.1-89-36.16,97.35,75.1-30.6,91.78-72.32-64,89-127.94,52.85-36.16,38.94,55.63,61.19,86.22,91.78L2261.05,666l-80.66-11.12L2122,766.15l-50.06,105.69v52.84l114,19.47-25,72.32,80.66,41.71,72.32,44.51,102.91,58.41-38.94,33.37-80.66-58.4-69.54-36.17L2149.79,1061l-30.6,91.78L1996.81,1200l2.79-38.94L2102.5,1125l11.14-66.77-80.66-8.34-83.45-44.5-136.28,33.38-139.07,36.15-169.67-27.81-155.75,83.44L1168,1202.82l-77.88,77.88Zm987.38-311.52,11.14,30.6,36.15,5.56L2135.88,972Z"></path><polygon class="cls-2" points="114.03 1376.43 114.03 2155.3 222.84 2155.3 222.84 1824.57 549.28 1824.57 549.28 1741.53 215.68 1741.53 215.68 1376.43 114.03 1376.43"></polygon><polygon class="cls-2" points="262.93 1376.43 612.27 1376.43 612.27 1477.17 263.41 1477.17 262.93 1376.43"></polygon><rect class="cls-3" x="2057.69" y="1376.43" width="100.22" height="778.86"></rect><rect class="cls-3" x="2087.92" y="1376.43" width="100.22" height="778.86"></rect><rect class="cls-3" x="2322.56" y="1376.43" width="100.22" height="778.86"></rect><rect class="cls-3" x="2917.04" y="1375.52" width="100.22" height="779.77"></rect><rect class="cls-3" x="2293.79" y="1376.43" width="100.22" height="778.86"></rect><rect class="cls-3" x="2474.33" y="2062.23" width="352.21" height="93.06"></rect><rect class="cls-3" x="2474.33" y="2050.92" width="352.21" height="75.7"></rect><polygon class="cls-2" points="2943.14 1375.52 2943.14 2155.3 3050.52 2155.3 3050.52 1822.54 3395.57 1822.54 3395.57 1741.13 3046.22 1741.13 3046.22 1375.52 2943.14 1375.52"></polygon><rect class="cls-3" x="3100.63" y="1375.52" width="346.48" height="101.64"></rect><rect class="cls-3" x="3100.63" y="2050.08" width="346.48" height="105.22"></rect><path class="cls-3" d="M1833.56,1989.22c-30,25.59-87.63,66-163,67.49-127,2.59-254.35-106.21-300.85-272.9h-98.59c11.93,208.8,186.79,374.49,400.78,374.49a402.28,402.28,0,0,0,285.14-117.68,304.84,304.84,0,0,1-123.52-51.4Z"></path><path class="cls-3" d="M1833.72,1986.77c-31,25.29-82.66,57.81-148,59.38-121.08,2.9-243.19-101.44-290.26-262.21l-91.34-.13c11.4,200.72,178.45,360,382.88,360,59.41,0,113.63-17.05,113.63-17.05a341.22,341.22,0,0,0,40.75-17c18.5-9.2,31.28-17.78,46.88-28.29,14.27-9.62,32.64-22.75,53.34-39.62a154.66,154.66,0,0,1-49.72-11.93A156.58,156.58,0,0,1,1833.72,1986.77Z"></path><path class="cls-3" d="M1367.88,1741c5.36-67.85,41.72-140.1,88.31-186.2,55-54.42,136.66-87.89,214.41-87.89,53.82,0,98.93,16.55,104.68,18.71a293.13,293.13,0,0,1,55.61,27.87,263.46,263.46,0,0,1,103.35-42.72,402.22,402.22,0,0,0-262.3-96.67c-211.39,0-384.62,161.69-400.29,366.9Z"></path><path class="cls-3" d="M1396.14,1741c4.93-62.85,38.42-129.77,81.32-172.46,50.63-50.41,125.85-81.41,197.45-81.41,47.59,0,89.4,14.78,93.39,16.21a275,275,0,0,1,47.91,22.62,206,206,0,0,1,86.22-47.39,362,362,0,0,0-117.2-61.08s-53.28-16.32-109.09-16.32c-194.67,0-354.19,149.76-368.62,339.83Z"></path><rect class="cls-3" x="92.19" y="1376.43" width="25.41" height="778.86"></rect><rect class="cls-3" x="208.53" y="1707.55" width="340.74" height="39.24"></rect><rect class="cls-3" x="3043.24" y="1707.55" width="352.33" height="39.24"></rect><path class="cls-2" d="M554.84,2155.3l380.33-779.78Q1062.43,1631,1189.7,1886.39H1042.52q-53.68-117.66-107.35-235.33L699.74,2155.3Z"></path><path class="cls-2" d="M857,1938.35h350.51l111.93,217H1177.81l-67.08-121.25H814.2Z"></path></svg> 